<mxfile host="Electron" modified="2023-07-25T00:01:46.381Z" agent="Mozilla/5.0 (Windows NT 10.0; Win64; x64) AppleWebKit/537.36 (KHTML, like Gecko) draw.io/21.6.5 Chrome/114.0.5735.243 Electron/25.3.1 Safari/537.36" etag="_G9TidqwwV-1JIPDDO8l" version="21.6.5" type="device">
  <diagram name="Page-1" id="GcQAFc7T_E8WWP9-CP-i">
    <mxGraphModel dx="1674" dy="836" grid="1" gridSize="10" guides="1" tooltips="1" connect="1" arrows="1" fold="1" page="1" pageScale="1" pageWidth="827" pageHeight="1169" math="0" shadow="0">
      <root>
        <mxCell id="0" />
        <mxCell id="1" parent="0" />
        <mxCell id="8R2meNSlnnWfXJwPKQnz-1" value="" style="strokeWidth=1;shadow=0;dashed=0;align=center;html=1;shape=mxgraph.mockup.containers.browserWindow;rSize=0;strokeColor=#666666;strokeColor2=#008cff;strokeColor3=#c4c4c4;mainText=,;recursiveResize=0;" vertex="1" parent="1">
          <mxGeometry x="40" y="120" width="920" height="620" as="geometry" />
        </mxCell>
        <mxCell id="8R2meNSlnnWfXJwPKQnz-2" value="Page 1" style="strokeWidth=1;shadow=0;dashed=0;align=center;html=1;shape=mxgraph.mockup.containers.anchor;fontSize=17;fontColor=#666666;align=left;whiteSpace=wrap;" vertex="1" parent="8R2meNSlnnWfXJwPKQnz-1">
          <mxGeometry x="60" y="12" width="110" height="26" as="geometry" />
        </mxCell>
        <mxCell id="8R2meNSlnnWfXJwPKQnz-3" value="https://www.Admin_Home.html" style="strokeWidth=1;shadow=0;dashed=0;align=center;html=1;shape=mxgraph.mockup.containers.anchor;rSize=0;fontSize=17;fontColor=#666666;align=left;" vertex="1" parent="8R2meNSlnnWfXJwPKQnz-1">
          <mxGeometry x="130" y="60" width="250" height="26" as="geometry" />
        </mxCell>
        <mxCell id="8R2meNSlnnWfXJwPKQnz-88" value="" style="group" vertex="1" connectable="0" parent="8R2meNSlnnWfXJwPKQnz-1">
          <mxGeometry x="435" y="120" width="50" height="50" as="geometry" />
        </mxCell>
        <mxCell id="8R2meNSlnnWfXJwPKQnz-86" value="" style="verticalLabelPosition=bottom;shadow=0;dashed=0;align=center;html=1;verticalAlign=top;strokeWidth=1;shape=mxgraph.mockup.graphics.simpleIcon;strokeColor=#999999;" vertex="1" parent="8R2meNSlnnWfXJwPKQnz-88">
          <mxGeometry width="50" height="50" as="geometry" />
        </mxCell>
        <mxCell id="8R2meNSlnnWfXJwPKQnz-87" value="Logo" style="text;html=1;align=center;verticalAlign=middle;resizable=0;points=[];autosize=1;strokeColor=none;fillColor=none;" vertex="1" parent="8R2meNSlnnWfXJwPKQnz-88">
          <mxGeometry y="10" width="50" height="30" as="geometry" />
        </mxCell>
        <mxCell id="8R2meNSlnnWfXJwPKQnz-89" value="&lt;font style=&quot;font-size: 55px;&quot;&gt;Admin Home&lt;/font&gt;" style="text;html=1;align=center;verticalAlign=middle;resizable=0;points=[];autosize=1;strokeColor=none;fillColor=none;" vertex="1" parent="8R2meNSlnnWfXJwPKQnz-1">
          <mxGeometry x="290" y="190" width="340" height="80" as="geometry" />
        </mxCell>
        <mxCell id="8R2meNSlnnWfXJwPKQnz-90" value="View Staff Details" style="strokeWidth=1;shadow=0;dashed=0;align=center;html=1;shape=mxgraph.mockup.text.textBox;fontColor=#666666;align=left;fontSize=17;spacingLeft=4;spacingTop=-3;whiteSpace=wrap;strokeColor=#666666;mainText=" vertex="1" parent="8R2meNSlnnWfXJwPKQnz-1">
          <mxGeometry x="385" y="270" width="150" height="30" as="geometry" />
        </mxCell>
        <mxCell id="8R2meNSlnnWfXJwPKQnz-91" value="View Staff Details" style="strokeWidth=1;shadow=0;dashed=0;align=center;html=1;shape=mxgraph.mockup.text.textBox;fontColor=#666666;align=left;fontSize=17;spacingLeft=4;spacingTop=-3;whiteSpace=wrap;strokeColor=#666666;mainText=" vertex="1" parent="8R2meNSlnnWfXJwPKQnz-1">
          <mxGeometry x="385" y="320" width="150" height="30" as="geometry" />
        </mxCell>
        <mxCell id="8R2meNSlnnWfXJwPKQnz-92" value="View Staff Details" style="strokeWidth=1;shadow=0;dashed=0;align=center;html=1;shape=mxgraph.mockup.text.textBox;fontColor=#666666;align=left;fontSize=17;spacingLeft=4;spacingTop=-3;whiteSpace=wrap;strokeColor=#666666;mainText=" vertex="1" parent="8R2meNSlnnWfXJwPKQnz-1">
          <mxGeometry x="385" y="420" width="150" height="30" as="geometry" />
        </mxCell>
        <mxCell id="8R2meNSlnnWfXJwPKQnz-93" value="View Staff Details" style="strokeWidth=1;shadow=0;dashed=0;align=center;html=1;shape=mxgraph.mockup.text.textBox;fontColor=#666666;align=left;fontSize=17;spacingLeft=4;spacingTop=-3;whiteSpace=wrap;strokeColor=#666666;mainText=" vertex="1" parent="8R2meNSlnnWfXJwPKQnz-1">
          <mxGeometry x="385" y="470" width="150" height="30" as="geometry" />
        </mxCell>
        <mxCell id="8R2meNSlnnWfXJwPKQnz-94" value="View Staff Details" style="strokeWidth=1;shadow=0;dashed=0;align=center;html=1;shape=mxgraph.mockup.text.textBox;fontColor=#666666;align=left;fontSize=17;spacingLeft=4;spacingTop=-3;whiteSpace=wrap;strokeColor=#666666;mainText=" vertex="1" parent="8R2meNSlnnWfXJwPKQnz-1">
          <mxGeometry x="385" y="370" width="150" height="30" as="geometry" />
        </mxCell>
        <mxCell id="8R2meNSlnnWfXJwPKQnz-95" value="View Staff Details" style="strokeWidth=1;shadow=0;dashed=0;align=center;html=1;shape=mxgraph.mockup.text.textBox;fontColor=#666666;align=left;fontSize=17;spacingLeft=4;spacingTop=-3;whiteSpace=wrap;strokeColor=#666666;mainText=" vertex="1" parent="8R2meNSlnnWfXJwPKQnz-1">
          <mxGeometry x="385" y="520" width="150" height="30" as="geometry" />
        </mxCell>
        <mxCell id="8R2meNSlnnWfXJwPKQnz-96" value="BACK" style="strokeWidth=1;shadow=0;dashed=0;align=center;html=1;shape=mxgraph.mockup.text.textBox;fontColor=#666666;align=left;fontSize=17;spacingLeft=4;spacingTop=-3;whiteSpace=wrap;strokeColor=#666666;mainText=" vertex="1" parent="8R2meNSlnnWfXJwPKQnz-1">
          <mxGeometry x="430" y="580" width="60" height="20" as="geometry" />
        </mxCell>
      </root>
    </mxGraphModel>
  </diagram>
</mxfile>
